<svg xmlns="http://www.w3.org/2000/svg" viewBox="0 0 1500 1488.6" style="enable-background:new 0 0 1500 1488.6" xml:space="preserve"><path d="m116.6 484.5-73.9 19 46.5 58.7-73.9 26.7L74 646.8 0 678l66.3 54.1L0 774.8l42.7 19.8-3.8-16 77.7-19 124.2 189.7 11.4-228.6 73.9-19 80.7 286.4-57.9 19.8-54.1-198.1-12.2 213.3-50.3 15.3-115.7-182.1 54.1 198.1-23.7 7.6-30.5 70.1 73.1 3.8-22.9 73.9 81.5-8.4-19.8 73.9 73.9-11.4-7.6 73.1 77.7-22.9v77l69.3-38.1 11.4 80.7 66.3-46.5 23.6 78.5 65.5-51.1 27.4 73.9L690 1426l42.7 62.5 46.5-66.3 46.5 58.7 42.7-66.3 50.3 51.1 31.2-74.7 65.5 47.2 15.2-73.9 70.1 35 3.8-77.7 77.7 27.4-11.4-73.9 77.7 19-8.4-84.6 77.7 15.2-22.9-77.7 81.5 7.6-38.8-77.7 81.5-3.8-38.8-77.7 73.1-15.2-50.3-65.5 77.7-27.4-57.9-57.9 77-38.8-73.1-46.5 73.1-42.7-19-7.6-174.5 50.3L1225 454l50.3-12.2 66.3 236.2 81.5-19 57.9-58.7-77.7-30.5 54.1-54.8-73.1-19 42.7-61.7-81.5-8.4 38.8-73.1h-81.5l26.7-77.7-80.7 11.4 19-77.7-77.7 19.8v-77.7l-69.3 23.6-3.8-77.7-70.1 38.9-12.2-81.5-61.7 46.5-26.7-73.9-62.5 50.3L857 0l-58.7 73.1L759.5 0l-42.7 65.5-50.2-57.9-38.8 69.3L577.5 19l-26.7 77.7-66.3-50.3-11.4 77.7-73.9-42.7v80.8l-81.5-26.7 3.8 81.5-73.1-23.6 11.4 77.7-81.5-3.8 23.6 69.3-77.7 3.8 31.2 66.3L73.9 422l42.7 62.5zM1190 461.7l16 49.5-167.6 42.7L1062 624l144-38.9 11.4 42.7-147 46.5 22.9 77.7 163-50.3 11.4 50.3-213.3 61.7-81.5-290.3 217.1-61.7zM558.4 685.6 547 639.2l406.8-112 15.2 46.5-89.1 22.9L946.2 841l-54.9 15.3-65.5-240-124.2 30.5 66.3 240.7-54.9 19-65.5-243.8-89.1 22.9zm31.2 190.5-120.4 30.5-3.8 66.3-50.3 15.2 26.7-313.9 62.5-19L678.8 915l-54.9 15.2-34.3-54.1zM480.7 716.9l-7.6 139.4 89.1-22.9-81.5-116.5zM15.2 868.5l51 19-16-54.1-35 35.1zm85.4 135.6-34.3 46.5 46.5-3.8-12.2-42.7zm-26.7-89.2L35 961.4l54.1 7.6-15.2-54.1z" style="fill-rule:evenodd;clip-rule:evenodd;fill:#c93537"/></svg>